<?xml version="1.0" encoding="UTF-8" standalone="no"?>
<!DOCTYPE svg PUBLIC "-//W3C//DTD SVG 1.1//EN"
 "http://www.w3.org/Graphics/SVG/1.1/DTD/svg11.dtd">
<!-- Generated by graphviz version 2.38.0 (20140413.2041)
 -->
<!-- Title: network_graph Pages: 1 -->
<svg width="861pt" height="892pt"
 viewBox="0.00 0.00 861.00 892.00" xmlns="http://www.w3.org/2000/svg" xmlns:xlink="http://www.w3.org/1999/xlink">
<g id="graph0" class="graph" transform="scale(1 1) rotate(0) translate(4 888)">
<title>network_graph</title>
<polygon fill="white" stroke="none" points="-4,4 -4,-888 857,-888 857,4 -4,4"/>
<!-- Block670 -->
<g id="node1" class="node"><title>Block670</title>
<polygon fill="lightgray" stroke="black" stroke-width="4" points="173,-191 79,-191 79,-119 173,-119 173,-191"/>
<text text-anchor="middle" x="126" y="-158.4" font-family="Times New Roman,serif" font-size="12.00">Dense</text>
<text text-anchor="middle" x="126" y="-145.4" font-family="Times New Roman,serif" font-size="12.00">classify()</text>
</g>
<!-- Block670_Output_0 -->
<g id="node5" class="node"><title>Block670_Output_0</title>
<polygon fill="lightgray" stroke="black" stroke-width="4" points="130.633,-0.0986735 133.701,-0.29575 136.737,-0.590689 139.729,-0.982683 142.664,-1.47066 145.532,-2.05327 148.32,-2.72894 151.018,-3.49579 153.615,-4.35174 156.103,-5.29443 158.471,-6.32129 160.713,-7.42949 162.819,-8.616 164.784,-9.87757 166.602,-11.2107 168.268,-12.6119 169.777,-14.0771 171.126,-15.6024 172.314,-17.1836 173.338,-18.8164 174.198,-20.4963 174.895,-22.2187 175.428,-23.9788 175.799,-25.7719 176.012,-27.5931 176.07,-29.4373 175.975,-31.2994 175.733,-33.1745 175.348,-35.0573 174.826,-36.9427 174.172,-38.8255 173.392,-40.7006 172.493,-42.5627 171.481,-44.4069 170.364,-46.2281 169.147,-48.0212 167.837,-49.7813 166.442,-51.5037 164.968,-53.1836 163.421,-54.8164 161.809,-56.3976 160.136,-57.9229 158.41,-59.3881 156.635,-60.7893 154.817,-62.1224 152.961,-63.384 151.072,-64.5705 149.154,-65.6787 147.21,-66.7056 145.245,-67.6483 143.261,-68.5042 141.262,-69.2711 139.251,-69.9467 137.228,-70.5293 135.197,-71.0173 133.16,-71.4093 131.118,-71.7042 129.072,-71.9013 127.024,-72 124.976,-72 122.928,-71.9013 120.882,-71.7042 118.84,-71.4093 116.803,-71.0173 114.772,-70.5293 112.749,-69.9467 110.738,-69.2711 108.739,-68.5042 106.755,-67.6483 104.79,-66.7056 102.846,-65.6787 100.928,-64.5705 99.0386,-63.384 97.1827,-62.1224 95.3649,-60.7893 93.5901,-59.3881 91.8637,-57.9229 90.1912,-56.3976 88.5786,-54.8164 87.0321,-53.1836 85.5579,-51.5037 84.1628,-49.7813 82.8533,-48.0212 81.6363,-46.2281 80.5186,-44.4069 79.5069,-42.5627 78.608,-40.7006 77.8284,-38.8255 77.1743,-36.9427 76.652,-35.0573 76.267,-33.1745 76.0248,-31.2994 75.9302,-29.4373 75.9875,-27.5931 76.2005,-25.7719 76.5723,-23.9788 77.1055,-22.2187 77.8016,-20.4963 78.6616,-18.8164 79.6859,-17.1836 80.8735,-15.6024 82.2232,-14.0771 83.7324,-12.6119 85.398,-11.2107 87.2158,-9.87757 89.1809,-8.616 91.2873,-7.42949 93.5285,-6.32129 95.897,-5.29443 98.3845,-4.35174 100.982,-3.49579 103.68,-2.72894 106.468,-2.05327 109.336,-1.47066 112.271,-0.982683 115.263,-0.590689 118.299,-0.29575 121.367,-0.0986735 124.453,-3.55271e-013 127.547,-3.69482e-013 130.633,-0.0986735"/>
<text text-anchor="middle" x="126" y="-39.4" font-family="Times New Roman,serif" font-size="12.00">classify</text>
<text text-anchor="middle" x="126" y="-26.4" font-family="Times New Roman,serif" font-size="12.00">[#](&#45;2,)</text>
</g>
<!-- Block670&#45;&gt;Block670_Output_0 -->
<g id="edge4" class="edge"><title>Block670&#45;&gt;Block670_Output_0</title>
<path fill="none" stroke="black" d="M126,-118.896C126,-107.327 126,-94.2965 126,-82.0893"/>
<polygon fill="black" stroke="black" points="129.5,-82.079 126,-72.0791 122.5,-82.0791 129.5,-82.079"/>
<text text-anchor="middle" x="140" y="-93" font-family="Times New Roman,serif" font-size="10.00">[#](&#45;2,)</text>
</g>
<!-- Parameter474 -->
<g id="node2" class="node"><title>Parameter474</title>
<polygon fill="lightgray" stroke="black" points="72,-292 0,-292 0,-249 72,-249 72,-292"/>
<text text-anchor="middle" x="36" y="-273.9" font-family="Times New Roman,serif" font-size="12.00">W</text>
<text text-anchor="middle" x="36" y="-260.9" font-family="Times New Roman,serif" font-size="12.00">(&#45;1, 129)</text>
</g>
<!-- Parameter474&#45;&gt;Block670 -->
<g id="edge1" class="edge"><title>Parameter474&#45;&gt;Block670</title>
<path fill="none" stroke="black" d="M52.2983,-248.946C63.2684,-235.112 78.1441,-216.352 91.6588,-199.308"/>
<polygon fill="black" stroke="black" points="94.6901,-201.118 98.1609,-191.108 89.2052,-196.769 94.6901,-201.118"/>
<text text-anchor="middle" x="100" y="-223" font-family="Times New Roman,serif" font-size="10.00">W</text>
<text text-anchor="middle" x="100" y="-212" font-family="Times New Roman,serif" font-size="10.00">(&#45;1, 129)</text>
</g>
<!-- Parameter475 -->
<g id="node3" class="node"><title>Parameter475</title>
<polygon fill="lightgray" stroke="black" points="162,-292 90,-292 90,-249 162,-249 162,-292"/>
<text text-anchor="middle" x="126" y="-273.9" font-family="Times New Roman,serif" font-size="12.00">b</text>
<text text-anchor="middle" x="126" y="-260.9" font-family="Times New Roman,serif" font-size="12.00">(129,)</text>
</g>
<!-- Parameter475&#45;&gt;Block670 -->
<g id="edge2" class="edge"><title>Parameter475&#45;&gt;Block670</title>
<path fill="none" stroke="black" d="M126,-248.946C126,-235.615 126,-217.71 126,-201.174"/>
<polygon fill="black" stroke="black" points="129.5,-201.108 126,-191.108 122.5,-201.108 129.5,-201.108"/>
<text text-anchor="middle" x="137" y="-223" font-family="Times New Roman,serif" font-size="10.00">b</text>
<text text-anchor="middle" x="137" y="-212" font-family="Times New Roman,serif" font-size="10.00">(129,)</text>
</g>
<!-- NoOp609 -->
<g id="node4" class="node"><title>NoOp609</title>
<ellipse fill="lightgray" stroke="black" stroke-width="4" cx="195" cy="-270.5" rx="14.5" ry="14.5"/>
<text text-anchor="middle" x="195" y="-267.4" font-family="Times New Roman,serif" font-size="12.00">NoOp</text>
</g>
<!-- NoOp609&#45;&gt;Block670 -->
<g id="edge3" class="edge"><title>NoOp609&#45;&gt;Block670</title>
<path fill="none" stroke="black" d="M187.876,-257.781C179.621,-244.202 165.529,-221.022 152.877,-200.211"/>
<polygon fill="black" stroke="black" points="155.75,-198.199 147.564,-191.472 149.768,-201.835 155.75,-198.199"/>
<text text-anchor="middle" x="192.5" y="-223" font-family="Times New Roman,serif" font-size="10.00">recurrence</text>
<text text-anchor="middle" x="192.5" y="-212" font-family="Times New Roman,serif" font-size="10.00">[#](&#45;2,)</text>
</g>
<!-- Block586 -->
<g id="node6" class="node"><title>Block586</title>
<polygon fill="lightgray" stroke="black" stroke-width="4" points="448,-422 354,-422 354,-350 448,-350 448,-422"/>
<text text-anchor="middle" x="401" y="-382.9" font-family="Times New Roman,serif" font-size="12.00">LSTM</text>
</g>
<!-- Block586&#45;&gt;NoOp609 -->
<g id="edge5" class="edge"><title>Block586&#45;&gt;NoOp609</title>
<path fill="none" stroke="black" d="M353.831,-380.104C316.505,-374.125 264.871,-360.939 229,-332 216.865,-322.21 208.311,-306.858 202.818,-294.07"/>
<polygon fill="black" stroke="black" points="205.978,-292.541 199.059,-284.518 199.464,-295.105 205.978,-292.541"/>
<text text-anchor="middle" x="269" y="-324" font-family="Times New Roman,serif" font-size="10.00">Block586_Output_0</text>
<text text-anchor="middle" x="269" y="-313" font-family="Times New Roman,serif" font-size="10.00">[#](&#45;2,)</text>
</g>
<!-- PastValue521 -->
<g id="node10" class="node"><title>PastValue521</title>
<polygon fill="lightgray" stroke="black" stroke-width="4" points="672,-292 610,-292 610,-249 672,-249 672,-292"/>
<text text-anchor="middle" x="641" y="-267.4" font-family="Times New Roman,serif" font-size="12.00">PastValue</text>
</g>
<!-- Block586&#45;&gt;PastValue521 -->
<g id="edge12" class="edge"><title>Block586&#45;&gt;PastValue521</title>
<path fill="none" stroke="black" d="M448.442,-378.771C504.736,-370.494 594.117,-354.279 619,-332 627.581,-324.316 632.819,-313.014 636.014,-302.251"/>
<polygon fill="black" stroke="black" points="639.488,-302.782 638.494,-292.234 632.694,-301.1 639.488,-302.782"/>
<text text-anchor="middle" x="674" y="-324" font-family="Times New Roman,serif" font-size="10.00">Block586_Output_0</text>
<text text-anchor="middle" x="674" y="-313" font-family="Times New Roman,serif" font-size="10.00">[#](&#45;2,)</text>
</g>
<!-- PastValue524 -->
<g id="node11" class="node"><title>PastValue524</title>
<polygon fill="lightgray" stroke="black" stroke-width="4" points="432,-292 370,-292 370,-249 432,-249 432,-292"/>
<text text-anchor="middle" x="401" y="-267.4" font-family="Times New Roman,serif" font-size="12.00">PastValue</text>
</g>
<!-- Block586&#45;&gt;PastValue524 -->
<g id="edge14" class="edge"><title>Block586&#45;&gt;PastValue524</title>
<path fill="none" stroke="black" d="M353.756,-365.912C327.426,-352.291 302.588,-332.46 317,-310 326.614,-295.018 343.677,-285.79 359.924,-280.143"/>
<polygon fill="black" stroke="black" points="361.341,-283.369 369.861,-277.071 359.273,-276.681 361.341,-283.369"/>
<text text-anchor="middle" x="357" y="-324" font-family="Times New Roman,serif" font-size="10.00">Block586_Output_1</text>
<text text-anchor="middle" x="357" y="-313" font-family="Times New Roman,serif" font-size="10.00">[#](&#45;2,)</text>
</g>
<!-- Parameter22 -->
<g id="node7" class="node"><title>Parameter22</title>
<polygon fill="lightgray" stroke="black" points="302,-523 230,-523 230,-480 302,-480 302,-523"/>
<text text-anchor="middle" x="266" y="-504.9" font-family="Times New Roman,serif" font-size="12.00">b</text>
<text text-anchor="middle" x="266" y="-491.9" font-family="Times New Roman,serif" font-size="12.00">(1200,)</text>
</g>
<!-- Parameter22&#45;&gt;Block586 -->
<g id="edge6" class="edge"><title>Parameter22&#45;&gt;Block586</title>
<path fill="none" stroke="black" d="M290.447,-479.946C307.426,-465.671 330.642,-446.153 351.417,-428.687"/>
<polygon fill="black" stroke="black" points="353.839,-431.222 359.241,-422.108 349.335,-425.864 353.839,-431.222"/>
<text text-anchor="middle" x="351.5" y="-454" font-family="Times New Roman,serif" font-size="10.00">b</text>
<text text-anchor="middle" x="351.5" y="-443" font-family="Times New Roman,serif" font-size="10.00">(1200,)</text>
</g>
<!-- Parameter23 -->
<g id="node8" class="node"><title>Parameter23</title>
<polygon fill="lightgray" stroke="black" points="392,-523 320,-523 320,-480 392,-480 392,-523"/>
<text text-anchor="middle" x="356" y="-504.9" font-family="Times New Roman,serif" font-size="12.00">W</text>
<text text-anchor="middle" x="356" y="-491.9" font-family="Times New Roman,serif" font-size="12.00">(&#45;1, 1200)</text>
</g>
<!-- Parameter23&#45;&gt;Block586 -->
<g id="edge7" class="edge"><title>Parameter23&#45;&gt;Block586</title>
<path fill="none" stroke="black" d="M364.149,-479.946C369.485,-466.489 376.668,-448.371 383.275,-431.706"/>
<polygon fill="black" stroke="black" points="386.648,-432.694 387.08,-422.108 380.141,-430.114 386.648,-432.694"/>
<text text-anchor="middle" x="398.5" y="-454" font-family="Times New Roman,serif" font-size="10.00">W</text>
<text text-anchor="middle" x="398.5" y="-443" font-family="Times New Roman,serif" font-size="10.00">(&#45;1, 1200)</text>
</g>
<!-- Parameter24 -->
<g id="node9" class="node"><title>Parameter24</title>
<polygon fill="lightgray" stroke="black" points="482,-523 410,-523 410,-480 482,-480 482,-523"/>
<text text-anchor="middle" x="446" y="-504.9" font-family="Times New Roman,serif" font-size="12.00">H</text>
<text text-anchor="middle" x="446" y="-491.9" font-family="Times New Roman,serif" font-size="12.00">(300, 1200)</text>
</g>
<!-- Parameter24&#45;&gt;Block586 -->
<g id="edge8" class="edge"><title>Parameter24&#45;&gt;Block586</title>
<path fill="none" stroke="black" d="M437.851,-479.946C432.515,-466.489 425.332,-448.371 418.725,-431.706"/>
<polygon fill="black" stroke="black" points="421.859,-430.114 414.92,-422.108 415.352,-432.694 421.859,-430.114"/>
<text text-anchor="middle" x="452.5" y="-454" font-family="Times New Roman,serif" font-size="10.00">H</text>
<text text-anchor="middle" x="452.5" y="-443" font-family="Times New Roman,serif" font-size="10.00">(300, 1200)</text>
</g>
<!-- PastValue521&#45;&gt;Block586 -->
<g id="edge9" class="edge"><title>PastValue521&#45;&gt;Block586</title>
<path fill="none" stroke="black" d="M609.813,-277.54C584.818,-283.306 549.503,-293.587 522,-310 509.853,-317.249 510.434,-323.672 499,-332 486.174,-341.341 471.505,-350.138 457.492,-357.78"/>
<polygon fill="black" stroke="black" points="455.579,-354.834 448.404,-362.629 458.874,-361.009 455.579,-354.834"/>
<text text-anchor="middle" x="570.5" y="-324" font-family="Times New Roman,serif" font-size="10.00">PastValue521_Output_0</text>
<text text-anchor="middle" x="570.5" y="-313" font-family="Times New Roman,serif" font-size="10.00">[#](&#45;2,)</text>
</g>
<!-- PastValue524&#45;&gt;Block586 -->
<g id="edge10" class="edge"><title>PastValue524&#45;&gt;Block586</title>
<path fill="none" stroke="black" d="M401,-292.217C401,-305.497 401,-323.268 401,-339.702"/>
<polygon fill="black" stroke="black" points="397.5,-339.71 401,-349.71 404.5,-339.71 397.5,-339.71"/>
<text text-anchor="middle" x="449.5" y="-324" font-family="Times New Roman,serif" font-size="10.00">PastValue524_Output_0</text>
<text text-anchor="middle" x="449.5" y="-313" font-family="Times New Roman,serif" font-size="10.00">[#](&#45;2,)</text>
</g>
<!-- Splice511 -->
<g id="node12" class="node"><title>Splice511</title>
<polygon fill="lightgray" stroke="black" stroke-width="4" points="544,-523 500,-523 500,-480 544,-480 544,-523"/>
<text text-anchor="middle" x="522" y="-498.4" font-family="Times New Roman,serif" font-size="12.00">Splice</text>
</g>
<!-- Splice511&#45;&gt;Block586 -->
<g id="edge11" class="edge"><title>Splice511&#45;&gt;Block586</title>
<path fill="none" stroke="black" d="M509.489,-479.806C501.422,-467.437 490.186,-451.873 478,-440 471.427,-433.596 464.001,-427.435 456.42,-421.722"/>
<polygon fill="black" stroke="black" points="458.309,-418.768 448.165,-415.709 454.187,-424.426 458.309,-418.768"/>
<text text-anchor="middle" x="538" y="-454" font-family="Times New Roman,serif" font-size="10.00">Splice511_Output_0</text>
<text text-anchor="middle" x="538" y="-443" font-family="Times New Roman,serif" font-size="10.00">[#](&#45;2,)</text>
</g>
<!-- Constant113 -->
<g id="node13" class="node"><title>Constant113</title>
<polygon fill="white" stroke="white" points="800.5,-397 761.5,-397 761.5,-375 800.5,-375 800.5,-397"/>
<text text-anchor="middle" x="781" y="-382.9" font-family="Times New Roman,serif" font-size="12.00">[0.1]</text>
</g>
<!-- Constant113&#45;&gt;PastValue521 -->
<g id="edge13" class="edge"><title>Constant113&#45;&gt;PastValue521</title>
<path fill="none" stroke="black" d="M787.615,-374.852C796.872,-359.242 810.969,-329.142 796,-310 782.104,-292.23 723.256,-281.496 682.212,-276.033"/>
<polygon fill="black" stroke="black" points="682.561,-272.549 672.199,-274.756 681.676,-279.493 682.561,-272.549"/>
<text text-anchor="middle" x="827.5" y="-324" font-family="Times New Roman,serif" font-size="10.00">Constant113</text>
<text text-anchor="middle" x="827.5" y="-313" font-family="Times New Roman,serif" font-size="10.00">(1,)</text>
</g>
<!-- Constant113&#45;&gt;PastValue524 -->
<g id="edge15" class="edge"><title>Constant113&#45;&gt;PastValue524</title>
<path fill="none" stroke="black" d="M773.215,-374.927C758.027,-355.398 725.289,-313.949 718,-310 706.021,-303.51 525.497,-284.284 442.356,-275.709"/>
<polygon fill="black" stroke="black" points="442.549,-272.211 432.243,-274.669 441.833,-279.174 442.549,-272.211"/>
<text text-anchor="middle" x="762.5" y="-324" font-family="Times New Roman,serif" font-size="10.00">Constant113</text>
<text text-anchor="middle" x="762.5" y="-313" font-family="Times New Roman,serif" font-size="10.00">(1,)</text>
</g>
<!-- Block498 -->
<g id="node14" class="node"><title>Block498</title>
<polygon fill="lightgray" stroke="black" stroke-width="4" points="541,-754 447,-754 447,-682 541,-682 541,-754"/>
<text text-anchor="middle" x="494" y="-721.4" font-family="Times New Roman,serif" font-size="12.00">Embedding</text>
<text text-anchor="middle" x="494" y="-708.4" font-family="Times New Roman,serif" font-size="12.00">embed()</text>
</g>
<!-- Block498&#45;&gt;Splice511 -->
<g id="edge16" class="edge"><title>Block498&#45;&gt;Splice511</title>
<path fill="none" stroke="black" d="M494.232,-681.866C494.855,-654.289 496.717,-615.006 502,-581 504.484,-565.008 508.776,-547.533 512.749,-533.138"/>
<polygon fill="black" stroke="black" points="516.187,-533.842 515.554,-523.266 509.454,-531.928 516.187,-533.842"/>
<text text-anchor="middle" x="516" y="-605.5" font-family="Times New Roman,serif" font-size="10.00">embed</text>
<text text-anchor="middle" x="516" y="-594.5" font-family="Times New Roman,serif" font-size="10.00">[#](&#45;2,)</text>
</g>
<!-- FutureValue509 -->
<g id="node15" class="node"><title>FutureValue509</title>
<polygon fill="lightgray" stroke="black" stroke-width="4" points="611,-624 539,-624 539,-581 611,-581 611,-624"/>
<text text-anchor="middle" x="575" y="-599.4" font-family="Times New Roman,serif" font-size="12.00">FutureValue</text>
</g>
<!-- Block498&#45;&gt;FutureValue509 -->
<g id="edge20" class="edge"><title>Block498&#45;&gt;FutureValue509</title>
<path fill="none" stroke="black" d="M516.511,-681.826C524.896,-669.106 534.651,-654.744 544,-642 546.387,-638.746 548.944,-635.388 551.527,-632.074"/>
<polygon fill="black" stroke="black" points="554.449,-634.023 557.92,-624.013 548.964,-629.673 554.449,-634.023"/>
<text text-anchor="middle" x="558" y="-656" font-family="Times New Roman,serif" font-size="10.00">embed</text>
<text text-anchor="middle" x="558" y="-645" font-family="Times New Roman,serif" font-size="10.00">[#](&#45;2,)</text>
</g>
<!-- FutureValue509&#45;&gt;Splice511 -->
<g id="edge17" class="edge"><title>FutureValue509&#45;&gt;Splice511</title>
<path fill="none" stroke="black" d="M564.018,-580.987C556.465,-566.879 546.315,-547.919 537.883,-532.169"/>
<polygon fill="black" stroke="black" points="540.955,-530.491 533.15,-523.327 534.784,-533.795 540.955,-530.491"/>
<text text-anchor="middle" x="607" y="-555" font-family="Times New Roman,serif" font-size="10.00">FutureValue509_Output_0</text>
<text text-anchor="middle" x="607" y="-544" font-family="Times New Roman,serif" font-size="10.00">[#](&#45;2,)</text>
</g>
<!-- Parameter11 -->
<g id="node16" class="node"><title>Parameter11</title>
<polygon fill="lightgray" stroke="black" points="478,-869.5 406,-869.5 406,-826.5 478,-826.5 478,-869.5"/>
<text text-anchor="middle" x="442" y="-851.4" font-family="Times New Roman,serif" font-size="12.00">E</text>
<text text-anchor="middle" x="442" y="-838.4" font-family="Times New Roman,serif" font-size="12.00">(&#45;1, 150)</text>
</g>
<!-- Parameter11&#45;&gt;Block498 -->
<g id="edge18" class="edge"><title>Parameter11&#45;&gt;Block498</title>
<path fill="none" stroke="black" d="M450.355,-826.435C457.257,-809.444 467.301,-784.721 476.014,-763.274"/>
<polygon fill="black" stroke="black" points="479.259,-764.585 479.78,-754.003 472.774,-761.95 479.259,-764.585"/>
<text text-anchor="middle" x="488" y="-786" font-family="Times New Roman,serif" font-size="10.00">E</text>
<text text-anchor="middle" x="488" y="-775" font-family="Times New Roman,serif" font-size="10.00">(&#45;1, 150)</text>
</g>
<!-- Placeholder0 -->
<g id="node17" class="node"><title>Placeholder0</title>
<polygon fill="lightgray" stroke="black" stroke-width="4" points="550.633,-812.099 553.701,-812.296 556.737,-812.591 559.729,-812.983 562.664,-813.471 565.532,-814.053 568.32,-814.729 571.018,-815.496 573.615,-816.352 576.103,-817.294 578.471,-818.321 580.713,-819.429 582.819,-820.616 584.784,-821.878 586.602,-823.211 588.268,-824.612 589.777,-826.077 591.126,-827.602 592.314,-829.184 593.338,-830.816 594.198,-832.496 594.895,-834.219 595.428,-835.979 595.799,-837.772 596.012,-839.593 596.07,-841.437 595.975,-843.299 595.733,-845.175 595.348,-847.057 594.826,-848.943 594.172,-850.825 593.392,-852.701 592.493,-854.563 591.481,-856.407 590.364,-858.228 589.147,-860.021 587.837,-861.781 586.442,-863.504 584.968,-865.184 583.421,-866.816 581.809,-868.398 580.136,-869.923 578.41,-871.388 576.635,-872.789 574.817,-874.122 572.961,-875.384 571.072,-876.571 569.154,-877.679 567.21,-878.706 565.245,-879.648 563.261,-880.504 561.262,-881.271 559.251,-881.947 557.228,-882.529 555.197,-883.017 553.16,-883.409 551.118,-883.704 549.072,-883.901 547.024,-884 544.976,-884 542.928,-883.901 540.882,-883.704 538.84,-883.409 536.803,-883.017 534.772,-882.529 532.749,-881.947 530.738,-881.271 528.739,-880.504 526.755,-879.648 524.79,-878.706 522.846,-877.679 520.928,-876.571 519.039,-875.384 517.183,-874.122 515.365,-872.789 513.59,-871.388 511.864,-869.923 510.191,-868.398 508.579,-866.816 507.032,-865.184 505.558,-863.504 504.163,-861.781 502.853,-860.021 501.636,-858.228 500.519,-856.407 499.507,-854.563 498.608,-852.701 497.828,-850.825 497.174,-848.943 496.652,-847.057 496.267,-845.175 496.025,-843.299 495.93,-841.437 495.988,-839.593 496.201,-837.772 496.572,-835.979 497.105,-834.219 497.802,-832.496 498.662,-830.816 499.686,-829.184 500.874,-827.602 502.223,-826.077 503.732,-824.612 505.398,-823.211 507.216,-821.878 509.181,-820.616 511.287,-819.429 513.529,-818.321 515.897,-817.294 518.385,-816.352 520.982,-815.496 523.68,-814.729 526.468,-814.053 529.336,-813.471 532.271,-812.983 535.263,-812.591 538.299,-812.296 541.367,-812.099 544.453,-812 547.547,-812 550.633,-812.099"/>
<text text-anchor="middle" x="546" y="-857.9" font-family="Times New Roman,serif" font-size="12.00">Placeholder</text>
<text text-anchor="middle" x="546" y="-844.9" font-family="Times New Roman,serif" font-size="12.00">keep</text>
<text text-anchor="middle" x="546" y="-831.9" font-family="Times New Roman,serif" font-size="12.00">[#](&#45;2,)</text>
</g>
<!-- Placeholder0&#45;&gt;Block498 -->
<g id="edge19" class="edge"><title>Placeholder0&#45;&gt;Block498</title>
<path fill="none" stroke="black" d="M532.065,-812.698C525.986,-797.735 518.777,-779.989 512.276,-763.987"/>
<polygon fill="black" stroke="black" points="515.343,-762.236 508.336,-754.289 508.857,-764.871 515.343,-762.236"/>
<text text-anchor="middle" x="538" y="-786" font-family="Times New Roman,serif" font-size="10.00">keep</text>
<text text-anchor="middle" x="538" y="-775" font-family="Times New Roman,serif" font-size="10.00">[#](&#45;2,)</text>
</g>
<!-- Constant4 -->
<g id="node18" class="node"><title>Constant4</title>
<polygon fill="white" stroke="white" points="593,-729 561,-729 561,-707 593,-707 593,-729"/>
<text text-anchor="middle" x="577" y="-714.9" font-family="Times New Roman,serif" font-size="12.00">0.0</text>
</g>
<!-- Constant4&#45;&gt;FutureValue509 -->
<g id="edge21" class="edge"><title>Constant4&#45;&gt;FutureValue509</title>
<path fill="none" stroke="black" d="M576.823,-706.928C576.539,-690.859 575.974,-658.772 575.548,-634.575"/>
<polygon fill="black" stroke="black" points="579.045,-634.366 575.369,-624.429 572.046,-634.489 579.045,-634.366"/>
<text text-anchor="middle" x="598" y="-656" font-family="Times New Roman,serif" font-size="10.00">Constant4</text>
<text text-anchor="middle" x="598" y="-645" font-family="Times New Roman,serif" font-size="10.00">()</text>
</g>
</g>
</svg>
