<?xml version="1.0" encoding="UTF-8" standalone="no"?>
<!DOCTYPE svg PUBLIC "-//W3C//DTD SVG 1.1//EN"
 "http://www.w3.org/Graphics/SVG/1.1/DTD/svg11.dtd">
<!-- Generated by graphviz version 2.38.0 (20140413.2041)
 -->
<!-- Title: network_graph Pages: 1 -->
<svg width="1469pt" height="690pt"
 viewBox="0.00 0.00 1469.00 690.00" xmlns="http://www.w3.org/2000/svg" xmlns:xlink="http://www.w3.org/1999/xlink">
<g id="graph0" class="graph" transform="scale(1 1) rotate(0) translate(4 686)">
<title>network_graph</title>
<polygon fill="white" stroke="none" points="-4,4 -4,-686 1465,-686 1465,4 -4,4"/>
<!-- Block1530 -->
<g id="node1" class="node"><title>Block1530</title>
<polygon fill="lightgray" stroke="black" stroke-width="4" points="173,-191 79,-191 79,-119 173,-119 173,-191"/>
<text text-anchor="middle" x="126" y="-158.4" font-family="Times New Roman,serif" font-size="12.00">Dense</text>
<text text-anchor="middle" x="126" y="-145.4" font-family="Times New Roman,serif" font-size="12.00">classify()</text>
</g>
<!-- Block1530_Output_0 -->
<g id="node5" class="node"><title>Block1530_Output_0</title>
<polygon fill="lightgray" stroke="black" stroke-width="4" points="130.633,-0.0986735 133.701,-0.29575 136.737,-0.590689 139.729,-0.982683 142.664,-1.47066 145.532,-2.05327 148.32,-2.72894 151.018,-3.49579 153.615,-4.35174 156.103,-5.29443 158.471,-6.32129 160.713,-7.42949 162.819,-8.616 164.784,-9.87757 166.602,-11.2107 168.268,-12.6119 169.777,-14.0771 171.126,-15.6024 172.314,-17.1836 173.338,-18.8164 174.198,-20.4963 174.895,-22.2187 175.428,-23.9788 175.799,-25.7719 176.012,-27.5931 176.07,-29.4373 175.975,-31.2994 175.733,-33.1745 175.348,-35.0573 174.826,-36.9427 174.172,-38.8255 173.392,-40.7006 172.493,-42.5627 171.481,-44.4069 170.364,-46.2281 169.147,-48.0212 167.837,-49.7813 166.442,-51.5037 164.968,-53.1836 163.421,-54.8164 161.809,-56.3976 160.136,-57.9229 158.41,-59.3881 156.635,-60.7893 154.817,-62.1224 152.961,-63.384 151.072,-64.5705 149.154,-65.6787 147.21,-66.7056 145.245,-67.6483 143.261,-68.5042 141.262,-69.2711 139.251,-69.9467 137.228,-70.5293 135.197,-71.0173 133.16,-71.4093 131.118,-71.7042 129.072,-71.9013 127.024,-72 124.976,-72 122.928,-71.9013 120.882,-71.7042 118.84,-71.4093 116.803,-71.0173 114.772,-70.5293 112.749,-69.9467 110.738,-69.2711 108.739,-68.5042 106.755,-67.6483 104.79,-66.7056 102.846,-65.6787 100.928,-64.5705 99.0386,-63.384 97.1827,-62.1224 95.3649,-60.7893 93.5901,-59.3881 91.8637,-57.9229 90.1912,-56.3976 88.5786,-54.8164 87.0321,-53.1836 85.5579,-51.5037 84.1628,-49.7813 82.8533,-48.0212 81.6363,-46.2281 80.5186,-44.4069 79.5069,-42.5627 78.608,-40.7006 77.8284,-38.8255 77.1743,-36.9427 76.652,-35.0573 76.267,-33.1745 76.0248,-31.2994 75.9302,-29.4373 75.9875,-27.5931 76.2005,-25.7719 76.5723,-23.9788 77.1055,-22.2187 77.8016,-20.4963 78.6616,-18.8164 79.6859,-17.1836 80.8735,-15.6024 82.2232,-14.0771 83.7324,-12.6119 85.398,-11.2107 87.2158,-9.87757 89.1809,-8.616 91.2873,-7.42949 93.5285,-6.32129 95.897,-5.29443 98.3845,-4.35174 100.982,-3.49579 103.68,-2.72894 106.468,-2.05327 109.336,-1.47066 112.271,-0.982683 115.263,-0.590689 118.299,-0.29575 121.367,-0.0986735 124.453,-3.55271e-013 127.547,-3.69482e-013 130.633,-0.0986735"/>
<text text-anchor="middle" x="126" y="-39.4" font-family="Times New Roman,serif" font-size="12.00">classify</text>
<text text-anchor="middle" x="126" y="-26.4" font-family="Times New Roman,serif" font-size="12.00">[#,*](129,)</text>
</g>
<!-- Block1530&#45;&gt;Block1530_Output_0 -->
<g id="edge4" class="edge"><title>Block1530&#45;&gt;Block1530_Output_0</title>
<path fill="none" stroke="black" d="M126,-118.896C126,-107.327 126,-94.2965 126,-82.0893"/>
<polygon fill="black" stroke="black" points="129.5,-82.079 126,-72.0791 122.5,-82.0791 129.5,-82.079"/>
<text text-anchor="middle" x="146.5" y="-93" font-family="Times New Roman,serif" font-size="10.00">[#,*](129,)</text>
</g>
<!-- Parameter1204 -->
<g id="node2" class="node"><title>Parameter1204</title>
<polygon fill="lightgray" stroke="black" points="72,-292 0,-292 0,-249 72,-249 72,-292"/>
<text text-anchor="middle" x="36" y="-273.9" font-family="Times New Roman,serif" font-size="12.00">W</text>
<text text-anchor="middle" x="36" y="-260.9" font-family="Times New Roman,serif" font-size="12.00">(300, 129)</text>
</g>
<!-- Parameter1204&#45;&gt;Block1530 -->
<g id="edge1" class="edge"><title>Parameter1204&#45;&gt;Block1530</title>
<path fill="none" stroke="black" d="M52.2983,-248.946C63.2684,-235.112 78.1441,-216.352 91.6588,-199.308"/>
<polygon fill="black" stroke="black" points="94.6901,-201.118 98.1609,-191.108 89.2052,-196.769 94.6901,-201.118"/>
<text text-anchor="middle" x="103" y="-223" font-family="Times New Roman,serif" font-size="10.00">W</text>
<text text-anchor="middle" x="103" y="-212" font-family="Times New Roman,serif" font-size="10.00">(300, 129)</text>
</g>
<!-- Parameter1205 -->
<g id="node3" class="node"><title>Parameter1205</title>
<polygon fill="lightgray" stroke="black" points="162,-292 90,-292 90,-249 162,-249 162,-292"/>
<text text-anchor="middle" x="126" y="-273.9" font-family="Times New Roman,serif" font-size="12.00">b</text>
<text text-anchor="middle" x="126" y="-260.9" font-family="Times New Roman,serif" font-size="12.00">(129,)</text>
</g>
<!-- Parameter1205&#45;&gt;Block1530 -->
<g id="edge2" class="edge"><title>Parameter1205&#45;&gt;Block1530</title>
<path fill="none" stroke="black" d="M126,-248.946C126,-235.615 126,-217.71 126,-201.174"/>
<polygon fill="black" stroke="black" points="129.5,-201.108 126,-191.108 122.5,-201.108 129.5,-201.108"/>
<text text-anchor="middle" x="137" y="-223" font-family="Times New Roman,serif" font-size="10.00">b</text>
<text text-anchor="middle" x="137" y="-212" font-family="Times New Roman,serif" font-size="10.00">(129,)</text>
</g>
<!-- Splice1519 -->
<g id="node4" class="node"><title>Splice1519</title>
<polygon fill="lightgray" stroke="black" stroke-width="4" points="673,-292 629,-292 629,-249 673,-249 673,-292"/>
<text text-anchor="middle" x="651" y="-267.4" font-family="Times New Roman,serif" font-size="12.00">Splice</text>
</g>
<!-- Splice1519&#45;&gt;Block1530 -->
<g id="edge3" class="edge"><title>Splice1519&#45;&gt;Block1530</title>
<path fill="none" stroke="black" d="M628.777,-264.696C552.239,-248.149 297.983,-193.181 183.157,-168.357"/>
<polygon fill="black" stroke="black" points="183.664,-164.886 173.15,-166.193 182.185,-171.728 183.664,-164.886"/>
<text text-anchor="middle" x="510" y="-223" font-family="Times New Roman,serif" font-size="10.00">Splice1519_Output_0</text>
<text text-anchor="middle" x="510" y="-212" font-family="Times New Roman,serif" font-size="10.00">[#,*](300,)</text>
</g>
<!-- Block1408 -->
<g id="node6" class="node"><title>Block1408</title>
<polygon fill="lightgray" stroke="black" stroke-width="4" points="470,-422 376,-422 376,-350 470,-350 470,-422"/>
<text text-anchor="middle" x="423" y="-382.9" font-family="Times New Roman,serif" font-size="12.00">LSTM</text>
</g>
<!-- Block1408&#45;&gt;Splice1519 -->
<g id="edge5" class="edge"><title>Block1408&#45;&gt;Splice1519</title>
<path fill="none" stroke="black" d="M470.395,-381.798C512.175,-376.836 572.798,-364.195 615,-332 625.325,-324.124 633.281,-312.364 639.055,-301.3"/>
<polygon fill="black" stroke="black" points="642.217,-302.801 643.397,-292.272 635.909,-299.767 642.217,-302.801"/>
<text text-anchor="middle" x="676.5" y="-324" font-family="Times New Roman,serif" font-size="10.00">Block1408_Output_0</text>
<text text-anchor="middle" x="676.5" y="-313" font-family="Times New Roman,serif" font-size="10.00">[#,*](150,)</text>
</g>
<!-- PastValue1333 -->
<g id="node11" class="node"><title>PastValue1333</title>
<polygon fill="lightgray" stroke="black" stroke-width="4" points="449,-292 387,-292 387,-249 449,-249 449,-292"/>
<text text-anchor="middle" x="418" y="-267.4" font-family="Times New Roman,serif" font-size="12.00">PastValue</text>
</g>
<!-- Block1408&#45;&gt;PastValue1333 -->
<g id="edge13" class="edge"><title>Block1408&#45;&gt;PastValue1333</title>
<path fill="none" stroke="black" d="M416.924,-349.732C416.124,-343.829 415.432,-337.753 415,-332 414.268,-322.25 414.62,-319.77 415,-310 415.098,-307.479 415.232,-304.868 415.389,-302.247"/>
<polygon fill="black" stroke="black" points="418.881,-302.482 416.085,-292.263 411.898,-301.995 418.881,-302.482"/>
<text text-anchor="middle" x="457.5" y="-324" font-family="Times New Roman,serif" font-size="10.00">Block1408_Output_0</text>
<text text-anchor="middle" x="457.5" y="-313" font-family="Times New Roman,serif" font-size="10.00">[#,*](150,)</text>
</g>
<!-- PastValue1336 -->
<g id="node12" class="node"><title>PastValue1336</title>
<polygon fill="lightgray" stroke="black" stroke-width="4" points="242,-292 180,-292 180,-249 242,-249 242,-292"/>
<text text-anchor="middle" x="211" y="-267.4" font-family="Times New Roman,serif" font-size="12.00">PastValue</text>
</g>
<!-- Block1408&#45;&gt;PastValue1336 -->
<g id="edge15" class="edge"><title>Block1408&#45;&gt;PastValue1336</title>
<path fill="none" stroke="black" d="M375.507,-359.355C359.711,-350.744 342.056,-341.033 326,-332 308.992,-322.432 305.18,-319.257 288,-310 276.268,-303.679 263.368,-297.09 251.536,-291.188"/>
<polygon fill="black" stroke="black" points="252.833,-287.924 242.319,-286.619 249.724,-294.196 252.833,-287.924"/>
<text text-anchor="middle" x="368.5" y="-324" font-family="Times New Roman,serif" font-size="10.00">Block1408_Output_1</text>
<text text-anchor="middle" x="368.5" y="-313" font-family="Times New Roman,serif" font-size="10.00">[#,*](150,)</text>
</g>
<!-- Block1496 -->
<g id="node7" class="node"><title>Block1496</title>
<polygon fill="lightgray" stroke="black" stroke-width="4" points="968,-422 874,-422 874,-350 968,-350 968,-422"/>
<text text-anchor="middle" x="921" y="-382.9" font-family="Times New Roman,serif" font-size="12.00">LSTM</text>
</g>
<!-- Block1496&#45;&gt;Splice1519 -->
<g id="edge6" class="edge"><title>Block1496&#45;&gt;Splice1519</title>
<path fill="none" stroke="black" d="M873.791,-370.036C843.954,-360.159 804.787,-346.417 771,-332 740.12,-318.824 706.041,-301.345 682.115,-288.563"/>
<polygon fill="black" stroke="black" points="683.62,-285.399 673.155,-283.743 680.303,-291.563 683.62,-285.399"/>
<text text-anchor="middle" x="813.5" y="-324" font-family="Times New Roman,serif" font-size="10.00">Block1496_Output_0</text>
<text text-anchor="middle" x="813.5" y="-313" font-family="Times New Roman,serif" font-size="10.00">[#,*](150,)</text>
</g>
<!-- FutureValue1432 -->
<g id="node20" class="node"><title>FutureValue1432</title>
<polygon fill="lightgray" stroke="black" stroke-width="4" points="1253,-292 1181,-292 1181,-249 1253,-249 1253,-292"/>
<text text-anchor="middle" x="1217" y="-267.4" font-family="Times New Roman,serif" font-size="12.00">FutureValue</text>
</g>
<!-- Block1496&#45;&gt;FutureValue1432 -->
<g id="edge25" class="edge"><title>Block1496&#45;&gt;FutureValue1432</title>
<path fill="none" stroke="black" d="M968.005,-373.304C999.84,-364.37 1042.27,-350.449 1077,-332 1091.29,-324.411 1091.74,-317.634 1106,-310 1126.4,-299.082 1150.52,-290.28 1171.05,-283.863"/>
<polygon fill="black" stroke="black" points="1172.25,-287.155 1180.81,-280.905 1170.22,-280.456 1172.25,-287.155"/>
<text text-anchor="middle" x="1148.5" y="-324" font-family="Times New Roman,serif" font-size="10.00">Block1496_Output_0</text>
<text text-anchor="middle" x="1148.5" y="-313" font-family="Times New Roman,serif" font-size="10.00">[#,*](150,)</text>
</g>
<!-- FutureValue1435 -->
<g id="node21" class="node"><title>FutureValue1435</title>
<polygon fill="lightgray" stroke="black" stroke-width="4" points="1011,-292 939,-292 939,-249 1011,-249 1011,-292"/>
<text text-anchor="middle" x="975" y="-267.4" font-family="Times New Roman,serif" font-size="12.00">FutureValue</text>
</g>
<!-- Block1496&#45;&gt;FutureValue1435 -->
<g id="edge27" class="edge"><title>Block1496&#45;&gt;FutureValue1435</title>
<path fill="none" stroke="black" d="M873.791,-351.361C861.553,-338.547 854.233,-323.725 864,-310 878.68,-289.371 905.221,-279.695 928.67,-275.201"/>
<polygon fill="black" stroke="black" points="929.53,-278.607 938.828,-273.528 928.392,-271.7 929.53,-278.607"/>
<text text-anchor="middle" x="906.5" y="-324" font-family="Times New Roman,serif" font-size="10.00">Block1496_Output_1</text>
<text text-anchor="middle" x="906.5" y="-313" font-family="Times New Roman,serif" font-size="10.00">[#,*](150,)</text>
</g>
<!-- Parameter616 -->
<g id="node8" class="node"><title>Parameter616</title>
<polygon fill="lightgray" stroke="black" points="369,-537.5 297,-537.5 297,-494.5 369,-494.5 369,-537.5"/>
<text text-anchor="middle" x="333" y="-519.4" font-family="Times New Roman,serif" font-size="12.00">b</text>
<text text-anchor="middle" x="333" y="-506.4" font-family="Times New Roman,serif" font-size="12.00">(600,)</text>
</g>
<!-- Parameter616&#45;&gt;Block1408 -->
<g id="edge7" class="edge"><title>Parameter616&#45;&gt;Block1408</title>
<path fill="none" stroke="black" d="M347.46,-494.435C359.567,-477.216 377.259,-452.054 392.477,-430.41"/>
<polygon fill="black" stroke="black" points="395.5,-432.196 398.389,-422.003 389.774,-428.17 395.5,-432.196"/>
<text text-anchor="middle" x="395" y="-454" font-family="Times New Roman,serif" font-size="10.00">b</text>
<text text-anchor="middle" x="395" y="-443" font-family="Times New Roman,serif" font-size="10.00">(600,)</text>
</g>
<!-- Parameter617 -->
<g id="node9" class="node"><title>Parameter617</title>
<polygon fill="lightgray" stroke="black" points="459,-537.5 387,-537.5 387,-494.5 459,-494.5 459,-537.5"/>
<text text-anchor="middle" x="423" y="-519.4" font-family="Times New Roman,serif" font-size="12.00">W</text>
<text text-anchor="middle" x="423" y="-506.4" font-family="Times New Roman,serif" font-size="12.00">(150, 600)</text>
</g>
<!-- Parameter617&#45;&gt;Block1408 -->
<g id="edge8" class="edge"><title>Parameter617&#45;&gt;Block1408</title>
<path fill="none" stroke="black" d="M423,-494.435C423,-477.673 423,-453.385 423,-432.141"/>
<polygon fill="black" stroke="black" points="426.5,-432.003 423,-422.003 419.5,-432.003 426.5,-432.003"/>
<text text-anchor="middle" x="442" y="-454" font-family="Times New Roman,serif" font-size="10.00">W</text>
<text text-anchor="middle" x="442" y="-443" font-family="Times New Roman,serif" font-size="10.00">(150, 600)</text>
</g>
<!-- Parameter618 -->
<g id="node10" class="node"><title>Parameter618</title>
<polygon fill="lightgray" stroke="black" points="549,-537.5 477,-537.5 477,-494.5 549,-494.5 549,-537.5"/>
<text text-anchor="middle" x="513" y="-519.4" font-family="Times New Roman,serif" font-size="12.00">H</text>
<text text-anchor="middle" x="513" y="-506.4" font-family="Times New Roman,serif" font-size="12.00">(150, 600)</text>
</g>
<!-- Parameter618&#45;&gt;Block1408 -->
<g id="edge9" class="edge"><title>Parameter618&#45;&gt;Block1408</title>
<path fill="none" stroke="black" d="M500.507,-494.259C491.124,-478.991 477.75,-457.87 465,-440 462.725,-436.812 460.33,-433.555 457.885,-430.3"/>
<polygon fill="black" stroke="black" points="460.594,-428.081 451.742,-422.259 455.031,-432.33 460.594,-428.081"/>
<text text-anchor="middle" x="498" y="-454" font-family="Times New Roman,serif" font-size="10.00">H</text>
<text text-anchor="middle" x="498" y="-443" font-family="Times New Roman,serif" font-size="10.00">(150, 600)</text>
</g>
<!-- PastValue1333&#45;&gt;Block1408 -->
<g id="edge10" class="edge"><title>PastValue1333&#45;&gt;Block1408</title>
<path fill="none" stroke="black" d="M449.428,-276.751C468.732,-281.774 491.991,-291.467 504,-310 516.328,-329.027 499.967,-346.484 478.798,-359.759"/>
<polygon fill="black" stroke="black" points="477.025,-356.741 470.169,-364.819 480.566,-362.78 477.025,-356.741"/>
<text text-anchor="middle" x="560" y="-324" font-family="Times New Roman,serif" font-size="10.00">PastValue1333_Output_0</text>
<text text-anchor="middle" x="560" y="-313" font-family="Times New Roman,serif" font-size="10.00">[#,*](150,)</text>
</g>
<!-- PastValue1336&#45;&gt;Block1408 -->
<g id="edge11" class="edge"><title>PastValue1336&#45;&gt;Block1408</title>
<path fill="none" stroke="black" d="M179.803,-288.152C176.859,-289.522 173.893,-290.828 171,-292 145.59,-302.292 128.314,-287.967 112,-310 106.182,-317.858 105.694,-324.528 112,-332 120.155,-341.663 278.41,-364.968 365.945,-377.203"/>
<polygon fill="black" stroke="black" points="365.609,-380.69 375.996,-378.602 366.574,-373.756 365.609,-380.69"/>
<text text-anchor="middle" x="163" y="-324" font-family="Times New Roman,serif" font-size="10.00">PastValue1336_Output_0</text>
<text text-anchor="middle" x="163" y="-313" font-family="Times New Roman,serif" font-size="10.00">[#,*](150,)</text>
</g>
<!-- Block1345 -->
<g id="node13" class="node"><title>Block1345</title>
<polygon fill="lightgray" stroke="black" stroke-width="4" points="689,-552 595,-552 595,-480 689,-480 689,-552"/>
<text text-anchor="middle" x="642" y="-519.4" font-family="Times New Roman,serif" font-size="12.00">Embedding</text>
<text text-anchor="middle" x="642" y="-506.4" font-family="Times New Roman,serif" font-size="12.00">embed()</text>
</g>
<!-- Block1345&#45;&gt;Block1408 -->
<g id="edge12" class="edge"><title>Block1345&#45;&gt;Block1408</title>
<path fill="none" stroke="black" d="M594.983,-484.96C572.739,-470.98 545.697,-454.315 521,-440 507.547,-432.202 492.879,-424.075 479.086,-416.595"/>
<polygon fill="black" stroke="black" points="480.632,-413.452 470.17,-411.783 477.308,-419.612 480.632,-413.452"/>
<text text-anchor="middle" x="575.5" y="-454" font-family="Times New Roman,serif" font-size="10.00">embed</text>
<text text-anchor="middle" x="575.5" y="-443" font-family="Times New Roman,serif" font-size="10.00">[#,*](150,)</text>
</g>
<!-- Block1345&#45;&gt;Block1496 -->
<g id="edge24" class="edge"><title>Block1345&#45;&gt;Block1496</title>
<path fill="none" stroke="black" d="M689.013,-493.431C737.405,-471.23 812.822,-436.63 864.444,-412.947"/>
<polygon fill="black" stroke="black" points="866.165,-416.008 873.794,-408.657 863.246,-409.646 866.165,-416.008"/>
<text text-anchor="middle" x="819.5" y="-454" font-family="Times New Roman,serif" font-size="10.00">embed</text>
<text text-anchor="middle" x="819.5" y="-443" font-family="Times New Roman,serif" font-size="10.00">[#,*](150,)</text>
</g>
<!-- Constant707 -->
<g id="node14" class="node"><title>Constant707</title>
<polygon fill="white" stroke="white" points="155.5,-397 116.5,-397 116.5,-375 155.5,-375 155.5,-397"/>
<text text-anchor="middle" x="136" y="-382.9" font-family="Times New Roman,serif" font-size="12.00">[0.1]</text>
</g>
<!-- Constant707&#45;&gt;PastValue1333 -->
<g id="edge14" class="edge"><title>Constant707&#45;&gt;PastValue1333</title>
<path fill="none" stroke="black" d="M153.677,-374.833C170.135,-364.952 194.928,-348.987 214,-332 223.648,-323.407 221.865,-316.551 233,-310 277.514,-283.81 337.243,-275.272 376.639,-272.58"/>
<polygon fill="black" stroke="black" points="376.91,-276.07 386.688,-271.989 376.5,-269.082 376.91,-276.07"/>
<text text-anchor="middle" x="258.5" y="-324" font-family="Times New Roman,serif" font-size="10.00">Constant707</text>
<text text-anchor="middle" x="258.5" y="-313" font-family="Times New Roman,serif" font-size="10.00">(1,)</text>
</g>
<!-- Constant707&#45;&gt;PastValue1336 -->
<g id="edge16" class="edge"><title>Constant707&#45;&gt;PastValue1336</title>
<path fill="none" stroke="black" d="M116.451,-379.354C80.6705,-368.093 10.7222,-341.218 38,-310 56.0529,-289.339 129.362,-299.015 170.135,-291.145"/>
<polygon fill="black" stroke="black" points="171.145,-294.5 179.985,-288.659 169.433,-287.712 171.145,-294.5"/>
<text text-anchor="middle" x="63.5" y="-324" font-family="Times New Roman,serif" font-size="10.00">Constant707</text>
<text text-anchor="middle" x="63.5" y="-313" font-family="Times New Roman,serif" font-size="10.00">(1,)</text>
</g>
<!-- Parameter4 -->
<g id="node15" class="node"><title>Parameter4</title>
<polygon fill="lightgray" stroke="black" points="626,-667.5 554,-667.5 554,-624.5 626,-624.5 626,-667.5"/>
<text text-anchor="middle" x="590" y="-649.4" font-family="Times New Roman,serif" font-size="12.00">E</text>
<text text-anchor="middle" x="590" y="-636.4" font-family="Times New Roman,serif" font-size="12.00">(943, 150)</text>
</g>
<!-- Parameter4&#45;&gt;Block1345 -->
<g id="edge17" class="edge"><title>Parameter4&#45;&gt;Block1345</title>
<path fill="none" stroke="black" d="M598.355,-624.435C605.257,-607.444 615.301,-582.721 624.014,-561.274"/>
<polygon fill="black" stroke="black" points="627.259,-562.585 627.78,-552.003 620.774,-559.95 627.259,-562.585"/>
<text text-anchor="middle" x="639" y="-584" font-family="Times New Roman,serif" font-size="10.00">E</text>
<text text-anchor="middle" x="639" y="-573" font-family="Times New Roman,serif" font-size="10.00">(943, 150)</text>
</g>
<!-- Input1330 -->
<g id="node16" class="node"><title>Input1330</title>
<polygon fill="lightgray" stroke="black" stroke-width="4" points="698.633,-610.099 701.701,-610.296 704.737,-610.591 707.729,-610.983 710.664,-611.471 713.532,-612.053 716.32,-612.729 719.018,-613.496 721.615,-614.352 724.103,-615.294 726.471,-616.321 728.713,-617.429 730.819,-618.616 732.784,-619.878 734.602,-621.211 736.268,-622.612 737.777,-624.077 739.126,-625.602 740.314,-627.184 741.338,-628.816 742.198,-630.496 742.895,-632.219 743.428,-633.979 743.799,-635.772 744.012,-637.593 744.07,-639.437 743.975,-641.299 743.733,-643.175 743.348,-645.057 742.826,-646.943 742.172,-648.825 741.392,-650.701 740.493,-652.563 739.481,-654.407 738.364,-656.228 737.147,-658.021 735.837,-659.781 734.442,-661.504 732.968,-663.184 731.421,-664.816 729.809,-666.398 728.136,-667.923 726.41,-669.388 724.635,-670.789 722.817,-672.122 720.961,-673.384 719.072,-674.571 717.154,-675.679 715.21,-676.706 713.245,-677.648 711.261,-678.504 709.262,-679.271 707.251,-679.947 705.228,-680.529 703.197,-681.017 701.16,-681.409 699.118,-681.704 697.072,-681.901 695.024,-682 692.976,-682 690.928,-681.901 688.882,-681.704 686.84,-681.409 684.803,-681.017 682.772,-680.529 680.749,-679.947 678.738,-679.271 676.739,-678.504 674.755,-677.648 672.79,-676.706 670.846,-675.679 668.928,-674.571 667.039,-673.384 665.183,-672.122 663.365,-670.789 661.59,-669.388 659.864,-667.923 658.191,-666.398 656.579,-664.816 655.032,-663.184 653.558,-661.504 652.163,-659.781 650.853,-658.021 649.636,-656.228 648.519,-654.407 647.507,-652.563 646.608,-650.701 645.828,-648.825 645.174,-646.943 644.652,-645.057 644.267,-643.175 644.025,-641.299 643.93,-639.437 643.988,-637.593 644.201,-635.772 644.572,-633.979 645.105,-632.219 645.802,-630.496 646.662,-628.816 647.686,-627.184 648.874,-625.602 650.223,-624.077 651.732,-622.612 653.398,-621.211 655.216,-619.878 657.181,-618.616 659.287,-617.429 661.529,-616.321 663.897,-615.294 666.385,-614.352 668.982,-613.496 671.68,-612.729 674.468,-612.053 677.336,-611.471 680.271,-610.983 683.263,-610.591 686.299,-610.296 689.367,-610.099 692.453,-610 695.547,-610 698.633,-610.099"/>
<text text-anchor="middle" x="694" y="-649.4" font-family="Times New Roman,serif" font-size="12.00">Input</text>
<text text-anchor="middle" x="694" y="-636.4" font-family="Times New Roman,serif" font-size="12.00">[#,*](943,)</text>
</g>
<!-- Input1330&#45;&gt;Block1345 -->
<g id="edge18" class="edge"><title>Input1330&#45;&gt;Block1345</title>
<path fill="none" stroke="black" d="M680.065,-610.698C673.986,-595.735 666.777,-577.989 660.276,-561.987"/>
<polygon fill="black" stroke="black" points="663.343,-560.236 656.336,-552.289 656.857,-562.871 663.343,-560.236"/>
<text text-anchor="middle" x="692.5" y="-584" font-family="Times New Roman,serif" font-size="10.00">Input1330</text>
<text text-anchor="middle" x="692.5" y="-573" font-family="Times New Roman,serif" font-size="10.00">[#,*](943,)</text>
</g>
<!-- Parameter31 -->
<g id="node17" class="node"><title>Parameter31</title>
<polygon fill="lightgray" stroke="black" points="867,-537.5 795,-537.5 795,-494.5 867,-494.5 867,-537.5"/>
<text text-anchor="middle" x="831" y="-519.4" font-family="Times New Roman,serif" font-size="12.00">b</text>
<text text-anchor="middle" x="831" y="-506.4" font-family="Times New Roman,serif" font-size="12.00">(600,)</text>
</g>
<!-- Parameter31&#45;&gt;Block1496 -->
<g id="edge19" class="edge"><title>Parameter31&#45;&gt;Block1496</title>
<path fill="none" stroke="black" d="M845.46,-494.435C857.567,-477.216 875.259,-452.054 890.477,-430.41"/>
<polygon fill="black" stroke="black" points="893.5,-432.196 896.389,-422.003 887.774,-428.17 893.5,-432.196"/>
<text text-anchor="middle" x="893" y="-454" font-family="Times New Roman,serif" font-size="10.00">b</text>
<text text-anchor="middle" x="893" y="-443" font-family="Times New Roman,serif" font-size="10.00">(600,)</text>
</g>
<!-- Parameter32 -->
<g id="node18" class="node"><title>Parameter32</title>
<polygon fill="lightgray" stroke="black" points="957,-537.5 885,-537.5 885,-494.5 957,-494.5 957,-537.5"/>
<text text-anchor="middle" x="921" y="-519.4" font-family="Times New Roman,serif" font-size="12.00">W</text>
<text text-anchor="middle" x="921" y="-506.4" font-family="Times New Roman,serif" font-size="12.00">(150, 600)</text>
</g>
<!-- Parameter32&#45;&gt;Block1496 -->
<g id="edge20" class="edge"><title>Parameter32&#45;&gt;Block1496</title>
<path fill="none" stroke="black" d="M921,-494.435C921,-477.673 921,-453.385 921,-432.141"/>
<polygon fill="black" stroke="black" points="924.5,-432.003 921,-422.003 917.5,-432.003 924.5,-432.003"/>
<text text-anchor="middle" x="940" y="-454" font-family="Times New Roman,serif" font-size="10.00">W</text>
<text text-anchor="middle" x="940" y="-443" font-family="Times New Roman,serif" font-size="10.00">(150, 600)</text>
</g>
<!-- Parameter33 -->
<g id="node19" class="node"><title>Parameter33</title>
<polygon fill="lightgray" stroke="black" points="1047,-537.5 975,-537.5 975,-494.5 1047,-494.5 1047,-537.5"/>
<text text-anchor="middle" x="1011" y="-519.4" font-family="Times New Roman,serif" font-size="12.00">H</text>
<text text-anchor="middle" x="1011" y="-506.4" font-family="Times New Roman,serif" font-size="12.00">(150, 600)</text>
</g>
<!-- Parameter33&#45;&gt;Block1496 -->
<g id="edge21" class="edge"><title>Parameter33&#45;&gt;Block1496</title>
<path fill="none" stroke="black" d="M998.507,-494.259C989.124,-478.991 975.75,-457.87 963,-440 960.725,-436.812 958.33,-433.555 955.885,-430.3"/>
<polygon fill="black" stroke="black" points="958.594,-428.081 949.742,-422.259 953.031,-432.33 958.594,-428.081"/>
<text text-anchor="middle" x="996" y="-454" font-family="Times New Roman,serif" font-size="10.00">H</text>
<text text-anchor="middle" x="996" y="-443" font-family="Times New Roman,serif" font-size="10.00">(150, 600)</text>
</g>
<!-- FutureValue1432&#45;&gt;Block1496 -->
<g id="edge22" class="edge"><title>FutureValue1432&#45;&gt;Block1496</title>
<path fill="none" stroke="black" d="M1214.71,-292.121C1212.13,-305.432 1206.65,-322.06 1195,-332 1163.04,-359.282 1048.58,-373.926 978.105,-380.533"/>
<polygon fill="black" stroke="black" points="977.683,-377.057 968.042,-381.45 978.318,-384.028 977.683,-377.057"/>
<text text-anchor="middle" x="1265.5" y="-324" font-family="Times New Roman,serif" font-size="10.00">FutureValue1432_Output_0</text>
<text text-anchor="middle" x="1265.5" y="-313" font-family="Times New Roman,serif" font-size="10.00">[#,*](150,)</text>
</g>
<!-- FutureValue1435&#45;&gt;Block1496 -->
<g id="edge23" class="edge"><title>FutureValue1435&#45;&gt;Block1496</title>
<path fill="none" stroke="black" d="M968.628,-292.07C964.671,-303.969 959.171,-319.094 953,-332 951.586,-334.958 950.055,-337.963 948.454,-340.962"/>
<polygon fill="black" stroke="black" points="945.291,-339.449 943.492,-349.89 951.409,-342.849 945.291,-339.449"/>
<text text-anchor="middle" x="1017.5" y="-324" font-family="Times New Roman,serif" font-size="10.00">FutureValue1435_Output_0</text>
<text text-anchor="middle" x="1017.5" y="-313" font-family="Times New Roman,serif" font-size="10.00">[#,*](150,)</text>
</g>
<!-- Constant122 -->
<g id="node22" class="node"><title>Constant122</title>
<polygon fill="white" stroke="white" points="1407.5,-397 1368.5,-397 1368.5,-375 1407.5,-375 1407.5,-397"/>
<text text-anchor="middle" x="1388" y="-382.9" font-family="Times New Roman,serif" font-size="12.00">[0.1]</text>
</g>
<!-- Constant122&#45;&gt;FutureValue1432 -->
<g id="edge26" class="edge"><title>Constant122&#45;&gt;FutureValue1432</title>
<path fill="none" stroke="black" d="M1394.71,-374.779C1404.09,-359.072 1418.34,-328.844 1403,-310 1385.7,-288.752 1312.48,-278.867 1263.24,-274.546"/>
<polygon fill="black" stroke="black" points="1263.37,-271.045 1253.12,-273.706 1262.79,-278.021 1263.37,-271.045"/>
<text text-anchor="middle" x="1435.5" y="-324" font-family="Times New Roman,serif" font-size="10.00">Constant122</text>
<text text-anchor="middle" x="1435.5" y="-313" font-family="Times New Roman,serif" font-size="10.00">(1,)</text>
</g>
<!-- Constant122&#45;&gt;FutureValue1435 -->
<g id="edge28" class="edge"><title>Constant122&#45;&gt;FutureValue1435</title>
<path fill="none" stroke="black" d="M1380.22,-374.92C1365.04,-355.378 1332.31,-313.908 1325,-310 1321.68,-308.223 1115.47,-286.305 1021.17,-276.356"/>
<polygon fill="black" stroke="black" points="1021.36,-272.857 1011.05,-275.29 1020.63,-279.819 1021.36,-272.857"/>
<text text-anchor="middle" x="1370.5" y="-324" font-family="Times New Roman,serif" font-size="10.00">Constant122</text>
<text text-anchor="middle" x="1370.5" y="-313" font-family="Times New Roman,serif" font-size="10.00">(1,)</text>
</g>
</g>
</svg>
